<svg width="135" height="157" viewBox="0 0 135 157" fill="none" xmlns="http://www.w3.org/2000/svg">
<path d="M85.2485 116.478H104.043V121.391H85.2485V116.478Z" fill="#191919"/>
<path d="M50.8571 116.478H32.0621V121.391H50.8571V116.478Z" fill="#191919"/>
<path fill-rule="evenodd" clip-rule="evenodd" d="M16.5838 156.153H66.3354H118.416V143.966H135V93.9033H118.416V143.966H66.3354H16.5838V93.9033H0V143.966H16.5838V156.153Z" fill="#191919"/>
<path d="M16.5838 93.9033H68.6646V81.1533H16.5838V93.9033Z" fill="#191919"/>
<path d="M68.6646 93.9033H118.416V81.1533H93.5404H68.6646V93.9033Z" fill="#191919"/>
<line x1="68" y1="86.1533" x2="68" y2="55.1533" stroke="#191919" stroke-width="4"/>
<rect x="55" y="46.1533" width="25" height="9" fill="#191919"/>
<rect x="17" y="55.103" width="7" height="7" transform="rotate(-45 17 55.103)" fill="#191919"/>
<rect x="26" y="55.103" width="7" height="7" transform="rotate(-45 26 55.103)" fill="#191919"/>
<rect x="17" y="64.103" width="7" height="7" transform="rotate(-45 17 64.103)" fill="#191919"/>
<rect x="26" y="64.103" width="7" height="7" transform="rotate(-45 26 64.103)" fill="#191919"/>
<rect x="109.755" y="29.1577" width="7" height="7" transform="rotate(21.1151 109.755 29.1577)" fill="#191919"/>
<rect x="113.399" y="37.3867" width="7" height="7" transform="rotate(21.1151 113.399 37.3867)" fill="#191919"/>
<rect x="101.526" y="32.8018" width="7" height="7" transform="rotate(21.1151 101.526 32.8018)" fill="#191919"/>
<rect x="105.17" y="41.0308" width="7" height="7" transform="rotate(21.1151 105.17 41.0308)" fill="#191919"/>
<rect x="54.8501" y="4.46533" width="7" height="7" transform="rotate(-15.5899 54.8501 4.46533)" fill="#191919"/>
<rect x="62.6904" y="8.88477" width="7" height="7" transform="rotate(-15.5899 62.6904 8.88477)" fill="#191919"/>
<rect x="50.4307" y="12.3052" width="7" height="7" transform="rotate(-15.5899 50.4307 12.3052)" fill="#191919"/>
<rect x="58.2708" y="16.7246" width="7" height="7" transform="rotate(-15.5899 58.2708 16.7246)" fill="#191919"/>
</svg>
