<svg width="136" height="166" viewBox="0 0 136 166" fill="none" xmlns="http://www.w3.org/2000/svg">
<line x1="68.5" y1="99.1533" x2="68.5" y2="79.1533" stroke="#191919" stroke-width="4"/>
<path d="M85.7485 118.478H104.543V137.391H85.7485V118.478Z" fill="#191919"/>
<path d="M51.3571 118.478H32.5621V137.391H51.3571V118.478Z" fill="#191919"/>
<path fill-rule="evenodd" clip-rule="evenodd" d="M17.0838 165.153H66.8354H118.916V152.966H135.5V102.903H118.916V152.966H66.8354H17.0838V102.903H0.5V152.966H17.0838V165.153Z" fill="#191919"/>
<path d="M17.0838 102.903H69.1646V90.1533H17.0838V102.903Z" fill="#191919"/>
<path d="M69.1646 102.903H118.916V90.1533H94.0404H69.1646V102.903Z" fill="#191919"/>
<path d="M16.772 72.7698L16.6826 61.7323C16.674 60.6725 18.1036 60.3292 18.5772 61.2773L21.5619 67.2529L27.8428 66.1361C28.4522 66.0277 29.0128 66.4936 29.0178 67.1126L29.1072 78.1501C29.1158 79.21 27.6862 79.5532 27.2126 78.6051L24.2279 72.6295L17.947 73.7463C17.3375 73.8547 16.777 73.3889 16.772 72.7698Z" fill="#191919"/>
<path d="M113.28 51.3688L103.59 56.6547C102.659 57.1623 101.682 56.0637 102.295 55.1989L106.156 49.7481L102.208 44.737C101.825 44.2507 101.971 43.5367 102.515 43.2403L112.205 37.9544C113.135 37.4468 114.112 38.5454 113.499 39.4102L109.639 44.861L113.586 49.8721C113.97 50.3584 113.823 51.0724 113.28 51.3688Z" fill="#191919"/>
<path d="M57.5473 14.1783L54.7426 24.8539C54.4733 25.879 53.0037 25.8358 52.795 24.7967L51.4796 18.248L45.1255 17.6807C44.5089 17.6257 44.09 17.0293 44.2473 16.4306L47.052 5.75494C47.3213 4.72988 48.7909 4.77303 48.9996 5.81212L50.3149 12.3609L56.6691 12.9282C57.2857 12.9832 57.7046 13.5796 57.5473 14.1783Z" fill="#191919"/>
<path fill-rule="evenodd" clip-rule="evenodd" d="M82.5 65.6533C82.5 73.6614 76.0081 80.1533 68 80.1533C59.9919 80.1533 53.5 73.6614 53.5 65.6533C53.5 57.6452 59.9919 51.1533 68 51.1533C76.0081 51.1533 82.5 57.6452 82.5 65.6533ZM68.2218 55.6739L60.6266 63.6832C60.2006 64.1324 60.2809 64.8568 60.795 65.2017L66.0924 68.7562L64.0946 75.13C63.7776 76.1413 65.0452 76.8862 65.7744 76.1172L73.3697 68.1079C73.7956 67.6587 73.7153 66.9343 73.2012 66.5894L67.9039 63.0349L69.9016 56.6611C70.2186 55.6498 68.9511 54.9049 68.2218 55.6739Z" fill="#191919"/>
</svg>
