<svg width="182" height="132" viewBox="0 0 182 132" fill="none" xmlns="http://www.w3.org/2000/svg">
<path d="M116.479 76.774H144.328V104.563H116.479V76.774Z" fill="#191919"/>
<path d="M68.7989 76.774H40.9494V104.563H68.7989V76.774Z" fill="#191919"/>
<path fill-rule="evenodd" clip-rule="evenodd" d="M16.3749 131.796H90.0942H167.265V122.566H182V58.2282H167.265V122.566H90.0942H16.3749V58.2282H0V122.566H16.3749V131.796Z" fill="#191919"/>
<path d="M94.4311 6.4887H89.2085V9.42735H94.4311V6.4887Z" fill="#191919"/>
<path fill-rule="evenodd" clip-rule="evenodd" d="M73.298 0H110.342V9.42735H94.4311V6.4887H89.2085V9.42735H73.298V0ZM89.2085 47.6298H16.3749V58.2282H93.5454V50.5685H89.2085V47.6298Z" fill="#191919"/>
<path d="M93.5454 47.6298H94.4311V9.42735H89.2085V47.6298H93.5454Z" fill="#191919"/>
<path d="M93.5454 50.5685H94.4311V47.6298H93.5454H89.2085V50.5685H93.5454Z" fill="#191919"/>
<path d="M93.5454 58.2282H167.265V47.6298H94.4311V50.5685H93.5454V58.2282Z" fill="#191919"/>
</svg>
