<svg width="285" height="49" viewBox="0 0 285 49" fill="none" xmlns="http://www.w3.org/2000/svg">
<path d="M0 49H39.3103V39.2H9.82759V9.8H39.3103V39.2H49.1379V9.8H39.3103V0H0V49Z" fill="#191919"/>
<path d="M58.9271 9.8H78.5823V39.2H58.9271V49H108.065V39.2H88.4099V9.8H108.065V0H58.9271V9.8Z" fill="#191919"/>
<path d="M117.854 49H166.992V19.6H137.509V29.4H157.165V39.2H127.682V9.8H166.992V0H117.854V49Z" fill="#191919"/>
<path d="M176.781 9.8H196.437V39.2H176.781V49H225.919V39.2H206.264V9.8H225.919V0H176.781V9.8Z" fill="#191919"/>
<path d="M285 49H245.69V39.2H275.172V9.8H245.69V39.2H235.862V9.8H245.69V0H285V49Z" fill="#191919"/>
</svg>
